<?xml version="1.0" standalone="no"?><!DOCTYPE svg PUBLIC "-//W3C//DTD SVG 1.1//EN" "http://www.w3.org/Graphics/SVG/1.1/DTD/svg11.dtd"><svg t="1513658010803" class="icon" style="" viewBox="0 0 1024 1024" version="1.1" xmlns="http://www.w3.org/2000/svg" p-id="7927" xmlns:xlink="http://www.w3.org/1999/xlink" width="20" height="20"><defs><style type="text/css"></style></defs><path d="M620.513524 958.107176c-72.027838 0-144.055677 0-216.083515 0 0-112.332686 0-224.665373 0-338.065419-114.229987 0-226.148215 0-338.065419 0 0-72.027838 0-144.055677 0-216.083515 112.33064 0 224.663326 0 338.065419 0 0-114.229987 0-226.147191 0-338.065419 72.027838 0 144.055677 0 216.083515 0 0 112.366457 0 224.731891 0 338.945504 114.084671 0 225.761386 0 337.121885 0 0 72.480161 0 143.088606 0 215.552394-112.602852 0-224.282638 0-337.121885 0C620.513524 734.201133 620.513524 846.155178 620.513524 958.107176z" p-id="7928" fill="#409EFF"></path></svg>