<?xml version="1.0" standalone="no"?><!DOCTYPE svg PUBLIC "-//W3C//DTD SVG 1.1//EN" "http://www.w3.org/Graphics/SVG/1.1/DTD/svg11.dtd"><svg t="1513656671136" class="icon" style="" viewBox="0 0 1000 1000" version="1.1" xmlns="http://www.w3.org/2000/svg" p-id="4514" xmlns:xlink="http://www.w3.org/1999/xlink" width="20" height="20"><defs><style type="text/css"></style></defs><path d="M500 812.9963c-26.665 0-55-2.3275-85-6.9963L211.0012 1000V737.0024999999999c-65.3325-37.335-116.8363-85-154.5025-143.0025C18.8325 536.0013 0 473.335 0 406.0012 0 332.6663 22.3338 264.8338 67.0025 202.5c44.6625-62.3338 105.3313-111.665 181.9963-147.9975C325.6688 18.1688 409.3312 0 500 0c90.6687 0 174.3313 18.1688 251.0012 54.5025C827.6663 90.835 888.335 140.1663 932.9975 202.5 977.6663 264.8338 1000 332.8325 1000 406.4988c0 73.6675-22.3338 141.67-67.0025 203.9988-44.6625 62.335-105.3325 111.67-181.9975 148.0038C674.3313 794.8338 590.6688 812.9963 500 812.9963L500 812.9963zM237.0025 312.9975c-22.0025 0-40.67 9.005-56.0013 27.0025-15.3325 17.9975-23.0037 40-23.0037 66.0013 0 26.0013 7.6713 48.1638 23.0037 66.4988 15.3313 18.335 33.9988 27.5 56.0013 27.5 21.9963 0 40.6638-9.165 55.995-27.5 15.3375-18.335 23.0037-40.4975 23.0037-66.4988 0-26.0013-7.6663-48.0037-23.0037-66.0013C277.6663 322.0025 258.9988 312.9975 237.0025 312.9975L237.0025 312.9975zM500 312.9975c-22.0025 0-40.6687 9.005-56.0013 27.0025-15.3313 17.9975-22.9975 40-22.9975 66.0013 0 26.0013 7.6663 48.1638 22.9975 66.4988 15.3325 18.335 33.9988 27.5 56.0013 27.5 22.0025 0 40.6687-9.165 56.0013-27.5s22.9975-40.4975 22.9975-66.4988c0-26.0013-7.6663-48.0037-22.9975-66.0013S522.0025 312.9975 500 312.9975L500 312.9975zM762.9975 312.9975c-21.9975 0-40.6638 9.005-55.9963 27.0025-15.3375 17.9975-23.0025 40-23.0025 66.0013 0 26.0013 7.6663 48.1638 23.0025 66.4988 15.3325 18.335 33.9988 27.5 55.9963 27.5 22.0025 0 40.6687-9.165 56.0013-27.5s23.0025-40.4975 23.0025-66.4988c0-26.0013-7.6713-48.0037-23.0025-66.0013S785 312.9975 762.9975 312.9975L762.9975 312.9975zM762.9975 312.9975" p-id="4515" fill="#606266"></path></svg>