<?xml version="1.0" standalone="no"?><!DOCTYPE svg PUBLIC "-//W3C//DTD SVG 1.1//EN" "http://www.w3.org/Graphics/SVG/1.1/DTD/svg11.dtd"><svg t="1513259325767" class="icon" style="" viewBox="0 0 1024 1024" version="1.1" xmlns="http://www.w3.org/2000/svg" p-id="7191" xmlns:xlink="http://www.w3.org/1999/xlink" width="20" height="20"><defs><style type="text/css"></style></defs><path d="M539.237 463.327c0 0-35.591-293.706-5.967-367.726 15.153-37.911 62.887-107.029 156.371-89.248 84.862 16.129 73.726 108.595 73.726 108.595s64.778-29.966 127.072 6.602c41.47 24.383 150.759 229.373-81.642 278.524-215.211 45.458-269.561 63.253-269.561 63.253z" p-id="7192" fill="#409EFF"></path><path d="M539.237 483.664c0 0 270.503-43.907 375.245-9.895 105.329 34.322 136.255 157.554 68.585 233.582-26.556 29.876-106.126 23.203-106.126 23.203s23.718 82.941-22.685 131.338c-46.461 48.384-136.758 57.362-183.723 1.005-79.013-94.816-131.295-358.925-131.295-379.232z" p-id="7193" fill="#409EFF"></path><path d="M508.576 460.862c0 0 3.279-328.278-124.441-402.817-61.232-35.771-167.389-13.011-213.29 45.916-32.078 41.175-36.657 92.157-25.668 120.986 0 0-119.715-6.305-139.033 107.148-20.469 120.468 110.383 154.85 121.222 156.003 72.603 7.931 155.071-18.401 258.748-27.234 59.222-5.083 122.461-0.001 122.461-0.001z" p-id="7194" fill="#409EFF"></path><path d="M521.456 484.669c0 0-197.191-15.049-354.212 111.388-82.941 66.753-77.742 168.761-46.789 229.312 22.743 44.441 81.996 69.134 148.16 61.217 0 0 9.836 114.547 114.516 131.35 71.866 11.521 179.853-50.479 189.661-129.388 17.722-143.182-64.215-338.705-51.337-403.881z" p-id="7195" fill="#409EFF"></path></svg>