<?xml version="1.0" standalone="no"?><!DOCTYPE svg PUBLIC "-//W3C//DTD SVG 1.1//EN" "http://www.w3.org/Graphics/SVG/1.1/DTD/svg11.dtd"><svg t="1513657312538" class="icon" style="" viewBox="0 0 1024 1024" version="1.1" xmlns="http://www.w3.org/2000/svg" p-id="7066" xmlns:xlink="http://www.w3.org/1999/xlink" width="20" height="20"><defs><style type="text/css"></style></defs><path d="M919.4 417.47c-16.66-26.955-45.11-41.995-74.507-43.213a25.308 25.308 0 0 0-4.604-0.409l-152.939-0.137c11.653-33.459 16.318-67.09 16.318-104.476 0-24.249-4.306-51.501-14.373-72.853-19.826-42.057-56.547-69.63-99.216-69.63-49.587 0-89.82 40.233-89.82 89.815 0 2.712 0.134 5.419 0.41 8.13-2.71 95.371-77.491 172.72-171.778 179.496v0.541l-115.56 0.275c-1.223-0.141-2.573-0.275-3.794-0.275-17.066 0-30.887 13.82-30.887 30.887l-0.269 370.783c0 17.067 13.823 30.882 30.888 30.882 1.623 0 3.251-0.133 4.879-0.404h127.07c1.491 0.271 2.984 0.404 4.607 0.404 1.627 0 3.113-0.133 4.604-0.404l428.761 0.135v0.136c16.796 0 33.871-4.604 49.04-14.223 14.495-9.074 25.331-21.811 32.513-36.034 2.031-2.846 3.522-6.102 4.469-9.618L932 482.63a30.529 30.529 0 0 0 0.949-10.432c1.355-18.694-2.843-37.927-13.549-54.728z m-680.77 47.479l89-0.212v312.146h-89.226l0.226-311.934z m634.476 2.917a59.015 59.015 0 0 0-0.154 3.854l-64.963 286.594a65.968 65.968 0 0 0-0.805 1.538c-2.678 5.304-6.309 9.416-10.789 12.221l-0.297 0.187a31.44 31.44 0 0 1-14.529 4.803 59.577 59.577 0 0 0-2.359-0.046l-391.58-0.123V453.949c98.773-30.077 169.961-120.037 173.016-227.547a59.961 59.961 0 0 0-0.285-7.791 19.893 19.893 0 0 1-0.101-2.043c0-16.44 13.377-29.815 29.82-29.815 8.159 0 15.989 2.641 23.274 7.85 8.654 6.188 16.147 15.651 21.672 27.37 5.331 11.307 8.643 29.417 8.643 47.264 0 32.388-4.125 59.315-12.98 84.741a59.998 59.998 0 0 0 56.608 79.734l150.587 0.135c1.504 0.177 3.014 0.296 4.527 0.359 10.795 0.447 20.496 5.983 25.951 14.81 0.145 0.234 0.29 0.466 0.438 0.698 4.172 6.546 4.644 13.484 4.306 18.152z" p-id="7067" fill="#606266"></path></svg>