<?xml version="1.0" standalone="no"?><!DOCTYPE svg PUBLIC "-//W3C//DTD SVG 1.1//EN" "http://www.w3.org/Graphics/SVG/1.1/DTD/svg11.dtd"><svg t="1513060916516" class="icon" style="" viewBox="0 0 1024 1024" version="1.1" xmlns="http://www.w3.org/2000/svg" p-id="3804" xmlns:xlink="http://www.w3.org/1999/xlink" width="60" height="60"><defs><style type="text/css"></style></defs><path d="M947.2 1024 76.8 1024C34.133333 1024 0 989.866667 0 947.2c0-162.133333 119.466667-290.133333 281.6-307.2C341.333333 682.666667 426.666667 699.733333 512 699.733333c85.333333 0 170.666667-25.6 230.4-59.733333 153.6 17.066667 281.6 145.066667 281.6 307.2C1024 989.866667 989.866667 1024 947.2 1024zM512 571.733333c-145.066667 0-256-128-256-290.133333C256 128 366.933333 0 512 0c145.066667 0 256 128 256 290.133333C768 443.733333 657.066667 571.733333 512 571.733333z" p-id="3805" fill="#409EFF"></path></svg>