<?xml version="1.0" standalone="no"?><!DOCTYPE svg PUBLIC "-//W3C//DTD SVG 1.1//EN" "http://www.w3.org/Graphics/SVG/1.1/DTD/svg11.dtd"><svg t="1513404505217" class="icon" style="" viewBox="0 0 1024 1024" version="1.1" xmlns="http://www.w3.org/2000/svg" p-id="15406" xmlns:xlink="http://www.w3.org/1999/xlink" width="40" height="40"><defs><style type="text/css"></style></defs><path d="M198.194456 380.248304c-28.441772 0-59.954487-3.441379-94.78783-11.471262-5.471618-1.263783-8.887414-6.719028-7.621585-12.193717 1.257643-5.474688 6.735401-8.890484 12.189623-7.625678 227.726561 52.506864 302.126039-100.883665 302.851563-102.43909 2.37407-5.090948 8.429996-7.28901 13.510712-4.919033 5.089925 2.369977 7.291057 8.420787 4.91801 13.510712C428.574451 256.573563 368.63429 380.248304 198.194456 380.248304z" p-id="15407" fill="#606266"></path><path d="M210.566228 742.928486c-95.339392 0-128.737036-32.462343-139.691529-60.887742-15.526625-40.287565 7.179516-93.112678 57.849546-134.571928 112.02133-91.662653 245.682515-21.447475 247.021-20.726044 4.942569 2.654456 6.788613 8.809643 4.133134 13.755282-2.653433 4.937452-8.812713 6.803963-13.761422 4.15053-4.985548-2.660596-123.166157-64.370053-224.517473 18.561751-43.074028 35.242665-63.872726 80.05836-51.749618 111.515816 13.273305 34.44244 64.065108 51.244104 143.03774 47.291073 5.607718-0.132006 10.382465 4.037966 10.660804 9.644661 0.281409 5.613858-4.036943 10.387581-9.647731 10.664897C225.738789 742.738152 217.963709 742.928486 210.566228 742.928486z" p-id="15408" fill="#606266"></path><path d="M247.679497 576.224744c0 34.363645 17.594727 62.22725 39.298028 62.22725 21.700231 0 39.293935-27.863604 39.293935-62.22725 0-34.362622-17.593703-62.21804-39.293935-62.21804C265.274224 514.006703 247.679497 541.862121 247.679497 576.224744z" p-id="15409" fill="#606266"></path><path d="M825.800427 380.248304c-170.464393 0-230.377948-123.674741-231.057423-125.138068-2.373047-5.090948-0.171915-11.140735 4.919033-13.510712 5.076622-2.368954 11.117199-0.178055 13.503549 4.898567l0 0c2.989077 6.341429 75.851549 154.768923 302.853609 102.459556 5.502317-1.231037 10.936073 2.152013 12.193717 7.625678 1.257643 5.474688-2.152013 10.929934-7.626701 12.193717C885.768217 376.800785 854.231967 380.248304 825.800427 380.248304z" p-id="15410" fill="#606266"></path><path d="M813.433772 742.928486c-7.40669 0-15.165398-0.191358-23.340591-0.602727-5.606695-0.277316-9.921977-5.051039-9.644661-10.664897 0.284479-5.606695 5.089925-9.788947 10.663874-9.644661 78.920444 3.925403 129.766482-12.848633 143.03774-47.291073 12.121062-31.456433-8.677637-76.272127-51.759851-111.515816-101.360526-82.930781-219.524762-21.228487-224.509287-18.561751-4.935406 2.654456-11.106965 0.787946-13.761422-4.15053-2.65548-4.945639-0.807389-11.101849 4.133134-13.755282 1.338485-0.721431 134.9966-70.924329 247.021 20.726044 50.667983 41.459251 73.379241 94.2772 57.849546 134.571928C942.167738 710.460004 908.758838 742.928486 813.433772 742.928486z" p-id="15411" fill="#606266"></path><path d="M776.318456 576.224744c0 34.363645-17.594727 62.22725-39.301098 62.22725-21.700231 0-39.293935-27.863604-39.293935-62.22725 0-34.362622 17.593703-62.21804 39.293935-62.21804C758.722706 514.006703 776.318456 541.862121 776.318456 576.224744z" p-id="15412" fill="#606266"></path><path d="M402.772808 783.355221c-1.134847 0-2.290159-0.192382-3.421936-0.594541-5.2864-1.889023-8.043187-7.706519-6.15314-12.994965 0.910743-2.549056 22.820752-62.389956 68.752874-62.389956 25.251104 0 40.413432 16.620539 48.547693 33.672914 9.372461-12.332886 24.76401-25.723871 48.430012-28.683273 47.594995-5.964852 63.857377 54.659901 64.525596 57.241702 1.407046 5.439896-1.859347 10.988262-7.29822 12.391215-5.440919 1.403976-10.981099-1.859347-12.388145-7.29515-0.115634-0.444115-12.349259-45.860491-42.316781-42.160215-32.255635 4.031826-43.557028 36.010145-44.023656 37.373189-1.52268 4.462638-5.91471 7.28901-10.629081 6.844895-4.692882-0.469698-8.459672-4.082992-9.081843-8.757454-0.225127-1.622964-5.941316-40.294728-35.765575-40.294728-31.255865 0-49.425689 48.41057-49.601698 48.89971C410.862044 780.768303 406.945851 783.355221 402.772808 783.355221z" p-id="15413" fill="#606266"></path></svg>