<?xml version="1.0" standalone="no"?><!DOCTYPE svg PUBLIC "-//W3C//DTD SVG 1.1//EN" "http://www.w3.org/Graphics/SVG/1.1/DTD/svg11.dtd"><svg t="1513259391598" class="icon" style="" viewBox="0 0 1025 1024" version="1.1" xmlns="http://www.w3.org/2000/svg" p-id="8158" xmlns:xlink="http://www.w3.org/1999/xlink" width="20.01953125" height="20"><defs><style type="text/css"></style></defs><path d="M327.537818 310.88128c40.27904-43.58656 131.4048-289.57696 187.11552-290.88256 52.37248-1.2288 130.85696 207.6928 165.65248 279.30624 74.13248 80.31744 342.8608 30.13632 343.69024 115.712 0.64 65.39776-203.17184 181.61152-224.82944 235.01824-9.06752 22.35904-0.23552 46.47936 3.328 69.68832 7.81824 43.264 68.89984 247.28064 13.2096 269.71136-86.63552 34.95424-208.36352-101.9648-302.96576-121.30304-99.62496-20.34176-241.90464 176.83968-326.48704 128.10752-70.82496-40.86272 75.50464-278.9888 28.4928-355.29216C179.759258 584.064-19.552102 478.11072 1.562778 404.86912 28.514458 311.3472 278.795418 363.62752 327.537818 310.88128z" p-id="8159" fill="#606266"></path><path d="M778.671258 264.83712c49.6128 16.02048 186.16832 49.98144 219.88864 27.43808 38.8608-25.984-83.3024-96.24576-88.60672-132.0448-3.11296-20.99712 4.01408-92.5952-18.57536-102.11328-34.10944-14.3872-83.42528 13.24032-113.90976 34.24256-49.70496 34.24256-90.82368-59.34592-135.6544-19.53792C616.638618 95.18592 735.407258 250.86976 778.671258 264.83712z" p-id="8160" fill="#606266"></path></svg>